<?xml version="1.0" encoding="UTF-8" standalone="no"?>
<!-- Created with Inkscape (http://www.inkscape.org/) -->

<svg
   version="1.1"
   id="svg1"
   width="963.76001"
   height="307.29333"
   viewBox="0 0 963.76001 307.29333"
   sodipodi:docname="Waterlands_logo_black.eps"
   xmlns:inkscape="http://www.inkscape.org/namespaces/inkscape"
   xmlns:sodipodi="http://sodipodi.sourceforge.net/DTD/sodipodi-0.dtd"
   xmlns="http://www.w3.org/2000/svg"
   xmlns:svg="http://www.w3.org/2000/svg">
  <defs
     id="defs1" />
  <sodipodi:namedview
     id="namedview1"
     pagecolor="#ffffff"
     bordercolor="#000000"
     borderopacity="0.25"
     inkscape:showpageshadow="2"
     inkscape:pageopacity="0.0"
     inkscape:pagecheckerboard="0"
     inkscape:deskcolor="#d1d1d1">
    <inkscape:page
       x="0"
       y="0"
       inkscape:label="1"
       id="page1"
       width="963.76001"
       height="307.29333"
       margin="0"
       bleed="0" />
  </sodipodi:namedview>
  <g
     id="g1"
     inkscape:groupmode="layer"
     inkscape:label="1">
    <g
       id="group-R5">
      <path
         id="path2"
         d="m 833.02,134.621 c 0.031,0.828 0.058,1.66 0.093,2.5 9.45,2.488 18.903,4.981 29.946,7.891 -2.032,21.738 -4.942,42.32 -5.704,62.968 -2.89,79.04 -7.367,158.122 -6.882,237.161 0.437,72.398 5.761,144.82 10.379,217.14 2.933,45.961 7.929,91.828 13.101,137.61 3.863,34.179 9.195,68.199 14.395,102.218 6.636,43.461 12.8,87.039 20.98,130.231 10.238,54.07 21.793,107.92 33.75,161.65 12.492,56.15 25.297,112.25 39.508,167.98 13.086,51.31 27.614,102.26 42.574,153.06 21.79,73.94 43.52,147.93 67.16,221.29 21.92,68 46.36,135.18 69.57,202.76 3.74,10.86 6.89,21.92 10.31,32.89 -1.22,0.38 -2.44,0.76 -3.66,1.15 -125.93,-274.93 -228.157,-558.26 -299.88,-853.06 -11.508,24.36 59.656,479.41 77.625,518.82 27.07,-4.07 31.524,-2.02 39.078,23.88 9.028,30.95 16.597,62.31 24.887,93.47 14.02,52.65 28.23,105.25 42.14,157.92 18.17,68.77 36.1,137.6 54.18,206.39 3.62,13.73 2.42,25.92 -12.98,30.84 -14.79,4.73 -29.95,9.17 -45.27,11.05 -11.77,1.45 -20.85,-3.63 -22.95,-18.35 -2.12,-14.87 -7.41,-29.28 -11.32,-43.9 -14.054,-52.64 -28.237,-105.25 -42.136,-157.94 -21.219,-80.47 -41.961,-161.06 -63.48,-241.45 -10.614,-39.68 -10.512,-41.81 18.316,-57.93 C 857.016,1303.75 810.039,961.191 796.648,614.379 c -1.347,0.019 -2.707,0.031 -4.058,0.051 -3.738,106.601 -7.481,213.191 -11.223,319.781 l -2.219,224.649 c 0,209.53 0.036,419.07 0.063,628.6 l 4.68,466.43 c 0.16,11.21 0.336,22.41 0.496,33.63 0.082,5.67 0.015,11.36 0.015,17.03 -1.386,0.04 -2.769,0.08 -4.144,0.11 -3.625,-29.86 -7.895,-59.64 -10.742,-89.57 -3.977,-41.75 -7.828,-83.51 -11.571,-125.29 -9.355,-88 -18.109,-188.83 -20.265,-273.64 -0.223,-8.55 -0.176,-16.45 0.047,-23.85 -1.082,-25.26 -2.2,-50.52 -2.907,-75.79 -3.683,-129.79 -8.074,-259.61 -8.988,-389.45 -0.449,-63.73 -0.684,-127.45 -0.816,-191.19 l -0.879,-8.33 V 910.988 l 0.836,-0.097 c 0.113,-76.86 0.297,-153.711 0.531,-230.571 0.238,-76.75 2.258,-153.511 3.836,-230.261 -7.852,64.652 -17.555,151.382 -25.602,224.75 -0.961,10.933 -1.898,21.871 -2.863,32.812 -4.52,51.469 -8.789,102.981 -14.402,154.328 -6.653,60.883 -14.352,121.653 -22.094,182.411 -7.426,58.22 -14.539,116.51 -23.508,174.5 -9.273,59.94 -19.594,119.75 -31.308,179.26 -14.235,72.32 -28.637,144.69 -46.219,216.24 -17.684,71.94 -37.02,143.66 -59.977,214.07 -21.195,64.97 -47.887,128.18 -72.777,191.92 -6.445,16.52 -15.211,32.13 -24.223,50.88 -12.547,-78.09 -21.324,-583.17 -10.984,-636.63 2.906,78.88 5.097,154.91 8.656,230.88 4.035,86.06 8.961,172.08 14.305,258.07 1.039,16.66 5.816,33.09 8.879,49.63 1.476,-0.29 2.949,-0.57 4.425,-0.86 8.036,-32.82 16.793,-65.49 23.946,-98.5 14.324,-66.13 28.289,-132.35 41.429,-198.72 11.379,-57.49 22.09,-115.15 31.84,-172.94 8.575,-50.86 15.801,-101.96 22.922,-153.06 10.672,-76.67 21.934,-153.29 30.746,-230.19 10.434,-91.06 19.367,-182.32 27.395,-273.629 7.273,-82.789 13.871,-165.679 18.265,-248.66 7.129,-134.68 12.344,-269.473 18.086,-404.223 1.621,-38.066 1.172,-38.089 36.965,-46.976 -6.683,-0.742 -13.508,-1.582 -20.066,-0.602 -46,6.852 -92.078,13.262 -137.856,21.399 -47.797,8.492 -94.632,21.703 -136.273,47.179 -36.414,22.293 -53.219,51.582 -22.942,90.051 0.153,0.18 0.075,0.539 -0.058,0.93 -0.125,0.402 -0.313,0.84 -0.399,1.203 v 0 c -16.781,-10.102 -26.726,-23.891 -28.664,-39.262 -1.168,-9.218 0.551,-19 5.407,-28.898 9.246,-18.871 24.136,-32.961 42.484,-43.774 51.406,-30.277 108.52,-44.398 166.121,-53.25 71.359,-10.968 143.527,-19.566 215.609,-22.289 107.403,-4.058 215.04,-2.109 322.575,-2.558 7.09,-0.031 14.17,1.25 21.27,1.929 -0.11,0.36 -0.2,0.731 -0.3,1.102 -92.38,5.34 -184.755,10.688 -277.13,16.039"
         style="fill:#383738;fill-opacity:1;fill-rule:nonzero;stroke:none"
         transform="matrix(0.13333333,0,0,-0.13333333,0,307.29333)" />
      <path
         id="path3"
         d="m 39.1836,1007.17 c 7.7148,46.37 15.2734,92.77 23.8164,138.99 2.4531,13.26 8.0781,25.93 13.125,41.61 5.1211,-5.5 7.7305,-7.32 9.0195,-9.82 33.4805,-64.71 69.1685,-128.4 99.6365,-194.509 42.953,-93.191 83.942,-187.402 122.125,-282.632 29.207,-72.868 55.235,-147.239 78.16,-222.329 24.438,-80.019 43.477,-161.699 65.274,-242.55 1.387,-5.141 5.223,-11.149 9.668,-13.7 40.269,-23.05 83.988,-31.82 129.922,-27.378 33.422,3.238 38.187,9.839 36.781,40.089 -4.731,101.789 -15.75,202.911 -35.098,302.93 -14,72.328 -28.988,144.539 -46.379,216.117 C 530.5,814.68 513.488,874.969 494.168,934.359 475.5,991.75 452.949,1047.9 431.34,1104.3 c -6.656,17.38 -15.828,33.8 -23.852,50.65 55.766,-209.009 115.864,-416.63 128.364,-634.001 -41.524,153.61 -96.567,302.09 -161.762,447.071 11.676,-54.141 25.652,-107.68 37.601,-161.668 11.895,-53.731 22.477,-107.77 32.289,-161.922 9.801,-54.051 17.946,-108.391 26.813,-162.61 -1.66,-0.351 -3.328,-0.711 -4.996,-1.07 C 358.824,763.648 236.73,1038.74 52.043,1282.82 17.2383,1128.26 8.94922,971.781 4.83984,814.809 c 8.39456,34.453 14.44536,69.203 20.20706,103.992 4.8711,29.429 9.2344,58.949 14.1367,88.369"
         style="fill:#383738;fill-opacity:1;fill-rule:nonzero;stroke:none"
         transform="matrix(0.13333333,0,0,-0.13333333,0,307.29333)" />
      <path
         id="path4"
         d="M 74.6992,94.6602 C 54.1484,115.59 37.9531,139.141 34.0859,168.992 c -5.7617,44.488 15.711,78.028 46.3672,106.379 57.7579,53.418 129.3199,79.961 203.3009,101.141 20.484,5.859 41.293,10.648 61.949,15.929 -0.226,1.399 -0.461,2.809 -0.695,4.207 v 0 c -0.055,0 -213.055,-1.707 -345.00409375,-94.75 0,0 27.08989375,15.172 56.01559375,21.454 -0.8007,-1.84 -1.5976,-3.68 -2.164,-5.86 11.2773,2.949 21.3633,5.59 31.4453,8.227 C 73.8047,313.672 61.1875,304.648 49.7188,294.352 27.6328,274.5 9.41797,251.531 3.46875,221.672 -4.85547,179.789 10.0117,144.172 36.5977,112.711 71.4883,71.4297 116.234,43.5586 164.582,21.1289 182.191,12.9609 200.809,6.98047 218.969,0 c 0.734,1.51172 1.472,3.01953 2.207,4.53906 -4.863,2.17969 -9.735,4.35157 -14.586,6.55074 -47.91,21.629 -94.449,45.4415 -131.8908,83.5704"
         style="fill:#383738;fill-opacity:1;fill-rule:nonzero;stroke:none"
         transform="matrix(0.13333333,0,0,-0.13333333,0,307.29333)" />
      <path
         id="path5"
         d="m 484.07,58.1602 c -65.5,12.0703 -130.316,27.3906 -192.007,53.3708 -45.184,19.02 -88.59,41.278 -119.907,80.668 -35.035,44.051 -35.972,88.992 13.68,124.91 12.516,9.051 26.043,16.7 39.109,24.993 -35.933,-12.262 -67.793,-30.391 -90.382,-61.793 -14.692,-20.43 -16.793,-43.797 -10.805,-66.727 7.152,-27.402 23.551,-49.98 45.976,-67.73 56.528,-44.782 123.77,-64.3832 192.36,-79.1215 44.367,-9.5313 89.644,-15.1992 134.754,-20.7617 37.035,-4.5782 74.41,-6.4493 111.636,-9.5274 0.008,1.25 0.012,2.5078 0.02,3.7578 -41.5,5.8828 -83.246,10.3711 -124.434,17.961"
         style="fill:#383738;fill-opacity:1;fill-rule:nonzero;stroke:none"
         transform="matrix(0.13333333,0,0,-0.13333333,0,307.29333)" />
      <path
         id="path6"
         d="m 1487.09,304.52 c -3.26,5.652 -8.81,10.628 -16.88,13.941 -1.5,0.609 -3.03,1.168 -4.53,1.777 -3.58,1.961 -7.41,3.934 -11.76,5.91 -115.05,52.454 -293.03,37.493 -293.03,37.493 0.56,-0.282 1.02,-0.532 1.56,-0.801 -6.39,-1.258 -8,-2.848 -8,-2.848 185.78,-42.031 -81.22,-77.832 -81.22,-77.832 67.69,-13.539 120.09,9.59 167.5,28.762 24.48,9.898 17.79,23.078 5.63,33.527 22.98,-3.039 91.81,-12.59 150.03,-25.07 71.06,-15.231 37.23,-38.91 -20.3,-65.988 -39.47,-18.571 -216.88,-61.871 -311.17,-84.211 -3.81,-0.75 -7.64,-1.489 -11.46,-2.239 2.45,4.539 3.08,11.481 4.33,23.508 4.36,41.77 8.19,83.699 15.16,125.071 10,59.269 21.26,118.402 34.48,177.031 15.3,67.879 32.42,135.398 50.48,202.597 12.03,44.731 26.41,88.864 40.97,132.864 19.45,58.797 39.04,117.609 60.54,175.678 21.3,57.55 44.89,114.26 67.83,171.18 7.33,18.2 15.79,35.95 23.73,53.91 37.36,-83.52 55.85,-171.09 82.86,-255.971 -5.62,107.351 -25.07,211.021 -77.48,310.521 -159.67,-254.77 -265.47,-527.92 -348.21,-811.318 9.4,129.187 37.92,254.707 68.25,379.777 30.26,124.723 65.27,248.161 107.73,369.551 -4.09,-3.86 -7.15,-8.12 -9.76,-12.64 -48.15,-83.37 -81.81,-172.99 -110.87,-264.208 -21.57,-67.683 -39.35,-136.601 -57.77,-205.242 -9.671,-36.059 -17.582,-72.602 -25.441,-109.109 -10.144,-47.161 -19.434,-94.481 -29.086,-141.743 1.348,67.731 6.508,134.981 13.899,201.961 l 69.998,375.361 c 0.38,-0.44 0.75,-0.87 1.12,-1.3 5.47,3.92 14.16,6.78 15.85,11.93 7.37,22.48 12.73,45.61 18.74,68.53 14.82,56.56 29.64,113.11 44.37,169.69 3.81,14.64 7.41,29.32 10.91,44.04 3.41,14.37 -6.32,19 -17.26,21.52 -22.45,5.17 -27.38,3.3 -31.5,-11 -4.88,-16.97 -9.57,-33.99 -14.08,-51.06 -18.11,-68.71 -35.89,-137.51 -54.26,-206.15 -7.07,-26.39 -8.27,-29.22 6.75,-39.11 -18.338,-62.21 -64.181,-227.451 -86.881,-397.001 l 0.821,0.043 C 895.289,473.469 876.566,263.859 890.41,164.949 c 29.887,-12.5 102.399,-17.719 136.33,-9.808 1.19,0.281 2.25,0.531 3.34,0.789 70.2,3.039 152.68,18.101 222.48,33.91 6.14,1.191 12.31,2.281 18.42,3.582 45.3,9.668 90.45,21.348 134.23,36.348 0,0 120.56,32.39 81.88,74.75"
         style="fill:#383738;fill-opacity:1;fill-rule:nonzero;stroke:none"
         transform="matrix(0.13333333,0,0,-0.13333333,0,307.29333)" />
      <path
         id="path7"
         d="M 1986.13,1092.99 1794.35,505.762 h -66.68 l -202.74,678.558 h 66.67 l 170.78,-591.789 h 0.92 l 190.86,591.789 h 63.93 l 192.7,-592.711 h 0.91 l 168.04,592.711 h 65.76 L 2244.58,505.762 H 2177 l -190.87,587.228"
         style="fill:#383738;fill-opacity:1;fill-rule:nonzero;stroke:none"
         transform="matrix(0.13333333,0,0,-0.13333333,0,307.29333)" />
      <path
         id="path8"
         d="m 2886.61,751.441 c 0,115.059 -75.8,194.52 -169.87,194.52 -94.98,0 -169.86,-77.629 -169.86,-195.441 0,-116.899 74.88,-195.438 169.86,-195.438 94.07,0 169.87,79.457 169.87,196.359 z m -401.84,-0.921 c 0,157.07 107.76,254.79 223.75,254.79 69.41,0 140.64,-33.779 179.91,-105.931 l 8.22,95.891 h 50.23 V 505.762 h -50.23 l -8.22,95.898 c -39.27,-72.148 -110.5,-105.941 -179.91,-105.941 -115.99,0 -223.75,98.633 -223.75,254.801"
         style="fill:#383738;fill-opacity:1;fill-rule:nonzero;stroke:none"
         transform="matrix(0.13333333,0,0,-0.13333333,0,307.29333)" />
      <path
         id="path9"
         d="m 3189.8,995.27 h 143.39 v -55.7 H 3189.8 V 672.891 c 0,-82.192 46.58,-115.981 111.42,-115.981 13.7,0 28.31,1.832 43.84,4.559 v -55.707 c -5.48,-0.91 -26.48,-4.563 -52.05,-4.563 -96.82,0 -165.31,58.449 -165.31,168.949 V 939.57 h -73.97 v 55.7 h 75.8 v 115.07 h 60.27 V 995.27"
         style="fill:#383738;fill-opacity:1;fill-rule:nonzero;stroke:none"
         transform="matrix(0.13333333,0,0,-0.13333333,0,307.29333)" />
      <path
         id="path10"
         d="m 3789.82,781.57 c -2.74,115.071 -73.06,166.211 -146.13,166.211 -83.1,0 -157.07,-63.929 -168.03,-166.211 z m 58.45,-53.89 h -373.53 c 10.05,-106.84 79.45,-173.508 179.92,-173.508 56.62,0 115.98,21 168.95,69.41 v -69.41 c -50.23,-39.274 -107.76,-58.453 -171.7,-58.453 -145.2,0 -239.27,100.453 -239.27,252.972 0,159.821 109.59,256.619 231.97,256.619 113.24,0 205.48,-84.009 205.48,-244.751 0,-12.789 -0.91,-22.821 -1.82,-32.879"
         style="fill:#383738;fill-opacity:1;fill-rule:nonzero;stroke:none"
         transform="matrix(0.13333333,0,0,-0.13333333,0,307.29333)" />
      <path
         id="path11"
         d="m 3979.79,995.27 h 49.31 l 7.31,-79.45 h 0.91 c 33.79,64.84 98.63,84.93 142.47,84.93 11.87,0 21.92,-0.91 31.05,-1.828 v -60.274 c -10.05,1.821 -21,2.743 -31.97,2.743 -67.58,0 -136.99,-44.75 -136.99,-142.461 V 505.762 h -62.09 V 995.27"
         style="fill:#383738;fill-opacity:1;fill-rule:nonzero;stroke:none"
         transform="matrix(0.13333333,0,0,-0.13333333,0,307.29333)" />
      <path
         id="path12"
         d="m 4370.59,1184.32 h 62.1 V 565.129 h 306.86 v -59.367 h -368.96 v 678.558"
         style="fill:#383738;fill-opacity:1;fill-rule:nonzero;stroke:none"
         transform="matrix(0.13333333,0,0,-0.13333333,0,307.29333)" />
      <path
         id="path13"
         d="m 4994.28,786.129 h 257.54 l -128.76,324.211 z m 367.14,-280.367 -86.76,220.097 h -303.2 l -86.77,-220.097 h -67.58 l 271.24,678.558 h 69.41 l 272.15,-678.558 h -68.49"
         style="fill:#383738;fill-opacity:1;fill-rule:nonzero;stroke:none"
         transform="matrix(0.13333333,0,0,-0.13333333,0,307.29333)" />
      <path
         id="path14"
         d="m 6063.71,505.762 h -56.63 l -401.83,577.178 h -0.92 V 505.762 h -62.09 v 678.558 h 65.75 l 392.7,-567.129 h 0.92 v 567.129 h 62.1 V 505.762"
         style="fill:#383738;fill-opacity:1;fill-rule:nonzero;stroke:none"
         transform="matrix(0.13333333,0,0,-0.13333333,0,307.29333)" />
      <path
         id="path15"
         d="m 6281.12,565.129 h 92.25 c 168.02,0 290.41,101.371 290.41,279.453 0,180.828 -122.39,280.368 -288.6,280.368 h -94.06 z m 447.5,280.371 c 0,-205.48 -145.21,-339.738 -358,-339.738 h -151.6 v 678.558 h 151.6 c 218.26,0 358,-135.17 358,-338.82"
         style="fill:#383738;fill-opacity:1;fill-rule:nonzero;stroke:none"
         transform="matrix(0.13333333,0,0,-0.13333333,0,307.29333)" />
      <path
         id="path16"
         d="m 7193.49,1155.09 v -71.23 c -48.4,35.62 -105.93,53.88 -158,53.88 -72.13,0 -138.79,-36.53 -138.79,-113.25 0,-66.67 51.13,-98.619 151.58,-144.291 105.03,-49.32 179.92,-93.148 179.92,-196.347 0,-124.204 -102.29,-192.704 -216.45,-192.704 -77.62,0 -144.28,31.973 -184.47,63.934 v 77.629 c 46.57,-49.32 117.8,-80.371 185.39,-80.371 77.63,0 151.6,43.832 151.6,126.031 0,69.399 -51.14,103.199 -154.34,150.688 -104.11,48.402 -177.17,87.671 -177.17,190.861 0,117.82 94.98,179.01 204.57,179.01 61.18,0 117.8,-20.1 156.16,-43.84"
         style="fill:#383738;fill-opacity:1;fill-rule:nonzero;stroke:none"
         transform="matrix(0.13333333,0,0,-0.13333333,0,307.29333)" />
    </g>
  </g>
</svg>
